<?xml version="1.0" encoding="UTF-8" standalone="no"?>
<svg
   xmlns:dc="http://purl.org/dc/elements/1.1/"
   xmlns:cc="http://creativecommons.org/ns#"
   xmlns:rdf="http://www.w3.org/1999/02/22-rdf-syntax-ns#"
   xmlns:svg="http://www.w3.org/2000/svg"
   xmlns="http://www.w3.org/2000/svg"
   viewBox="0 0 1127.1125 279.16251"
   height="279.16251"
   width="1127.1125"
   xml:space="preserve"
   version="1.1"
   id="svg2"><metadata
     id="metadata8"><rdf:RDF><cc:Work
         rdf:about=""><dc:format>image/svg+xml</dc:format><dc:type
           rdf:resource="http://purl.org/dc/dcmitype/StillImage" /></cc:Work></rdf:RDF></metadata><defs
     id="defs6" /><g
     transform="matrix(1.25,0,0,-1.25,0,279.1625)"
     id="g10"><g
       transform="scale(0.1,0.1)"
       id="g12"><path
         id="path14"
         style="fill:#3b393d;fill-opacity:1;fill-rule:nonzero;stroke:none"
         d="m 8074.13,1079.62 c 42.45,0 82.63,8.98 120.58,27.01 37.92,18 71.05,42.11 99.35,72.35 28.29,30.21 50.48,65.9 66.57,107.07 16.06,41.15 24.12,84.9 24.12,131.2 0,46.3 -8.06,90.01 -24.12,131.19 -16.09,41.15 -38.28,76.84 -66.57,107.08 -28.3,30.2 -61.43,54.32 -99.35,72.34 -37.95,18 -78.13,27.02 -120.58,27.02 -42.44,0 -82.66,-9.02 -120.58,-27.02 -37.96,-18.02 -71.09,-42.14 -99.36,-72.34 -28.3,-30.24 -50.83,-65.93 -67.53,-107.08 -16.73,-41.18 -25.08,-84.89 -25.08,-131.19 0,-46.3 8.35,-90.05 25.08,-131.2 16.7,-41.17 39.23,-76.86 67.53,-107.07 28.27,-30.24 61.4,-54.35 99.36,-72.35 37.92,-18.03 78.14,-27.01 120.58,-27.01 z m 476.53,818.02 0,-960.788 -165.91,0 0,125.398 c -41.18,-45.03 -89.42,-80.059 -144.7,-105.141 -55.32,-25.078 -115.13,-37.621 -179.43,-37.621 -64.33,0 -124.44,12.871 -180.39,38.582 -55.95,25.719 -104.84,61.08 -146.63,106.12 -41.81,45 -74.93,97.73 -99.35,158.2 -24.45,60.44 -36.66,125.4 -36.66,194.86 0,68.16 12.21,132.45 36.66,192.93 24.42,60.44 57.54,113.16 99.35,158.2 41.79,45.01 90.68,80.7 146.63,107.08 55.95,26.34 116.06,39.55 180.39,39.55 64.3,0 124.11,-12.55 179.43,-37.62 55.28,-25.09 103.52,-60.14 144.7,-105.15 l 0,125.4 165.91,0" /><path
         id="path16"
         style="fill:#3b393d;fill-opacity:1;fill-rule:nonzero;stroke:none"
         d="m 2029.02,1897.64 0,-210.66 -0.26,-339.5 c -1.25,-33.39 -7.69,-65.12 -19.38,-95.15 -13.1,-33.65 -31.07,-62.81 -53.86,-87.5 -22.81,-24.7 -49.49,-44.13 -80.04,-58.33 -30.56,-14.18 -63.31,-21.28 -98.23,-21.28 -34.93,0 -67.92,7.1 -98.96,21.28 -31.07,14.2 -57.74,33.63 -80.05,58.33 -22.34,24.69 -40.02,53.85 -53.12,87.5 -11.7,30.03 -18.13,61.76 -19.38,95.15 l -0.27,339.52 0,210.64 -163.99,0 0,-550.16 c 0,-59.71 10.98,-115.57 32.97,-167.54 21.96,-52 51.72,-97.33 89.26,-136.03 37.53,-38.73 81.48,-69.14 131.89,-91.238 50.39,-22.121 104.54,-33.184 162.45,-33.184 56.83,0 110.43,11.063 160.84,33.184 50.38,22.098 94.33,52.508 131.88,91.238 37.53,38.7 67.27,84.03 89.26,136.03 21.96,51.97 32.98,107.83 32.98,167.54 l 0,550.16 -163.99,0" /><path
         id="path18"
         style="fill:#3b393d;fill-opacity:1;fill-rule:nonzero;stroke:none"
         d="m 238.648,2127.23 c 0,-29.6 -10.312,-54.99 -30.871,-76.21 -20.586,-21.22 -45.668,-31.84 -75.242,-31.84 -29.605,0 -54.9842,10.62 -76.2069,31.84 -21.2226,21.22 -31.8359,46.61 -31.8359,76.21 0,29.57 10.6133,54.65 31.8359,75.24 21.2227,20.56 46.6019,30.87 76.2069,30.87 29.574,0 54.656,-10.31 75.242,-30.87 20.559,-20.59 30.871,-45.67 30.871,-75.24" /><path
         id="path20"
         style="fill:#3b393d;fill-opacity:1;fill-rule:nonzero;stroke:none"
         d="m 49.5742,936.852 163.992,0 0,960.793 -163.992,0 0,-960.793 z" /><path
         id="path22"
         style="fill:#3b393d;fill-opacity:1;fill-rule:nonzero;stroke:none"
         d="m 848.297,1754.88 c -46.305,0 -90.047,-9.02 -131.195,-27.02 -41.176,-18.02 -76.539,-41.81 -106.11,-71.38 -29.601,-29.6 -53.054,-64.96 -70.422,-106.11 -17.359,-41.18 -26.043,-84.89 -26.043,-131.19 0,-46.3 8.684,-90.05 26.043,-131.2 17.368,-41.18 40.821,-77.17 70.422,-108.04 29.571,-30.86 64.934,-55.31 106.11,-73.31 41.148,-18.03 84.89,-27.01 131.195,-27.01 60.441,0 114.793,14.47 163.023,43.41 48.23,28.94 87.12,66.56 116.73,112.86 l 136.97,-88.75 c -45.03,-69.45 -103.88,-124.77 -176.52,-165.921 -72.69,-41.137 -152.75,-61.731 -240.203,-61.731 -69.453,0 -134.418,13.203 -194.859,39.551 -60.469,26.34 -113.2,62.041 -158.204,107.071 -45.035,45.01 -80.726,97.74 -107.074,158.21 -26.379,60.44 -39.551,125.4 -39.551,194.86 0,68.16 13.172,132.46 39.551,192.93 26.348,60.44 62.039,112.86 107.074,157.23 45.004,44.38 97.735,79.74 158.204,106.12 60.441,26.34 125.406,39.55 194.859,39.55 87.453,0 167.513,-20.59 240.203,-61.74 72.64,-41.18 131.49,-96.47 176.52,-165.92 l -135.05,-88.75 c -29.6,47.57 -68.82,85.53 -117.68,113.83 -48.895,28.28 -103.552,42.45 -163.993,42.45" /><path
         id="path24"
         style="fill:#3b393d;fill-opacity:1;fill-rule:nonzero;stroke:none"
         d="m 2797.4,1754.88 c -46.31,0 -90.05,-9.02 -131.2,-27.02 -41.18,-18.02 -76.53,-41.81 -106.11,-71.38 -29.6,-29.6 -53.05,-64.96 -70.42,-106.11 -17.36,-41.18 -26.04,-84.89 -26.04,-131.19 0,-46.3 8.68,-90.05 26.04,-131.2 17.37,-41.18 40.82,-77.17 70.42,-108.04 29.58,-30.86 64.93,-55.31 106.11,-73.31 41.15,-18.03 84.89,-27.01 131.2,-27.01 60.44,0 114.79,14.47 163.02,43.41 48.23,28.94 87.12,66.56 116.73,112.86 l 136.97,-88.75 c -45.03,-69.45 -103.88,-124.77 -176.52,-165.921 -72.69,-41.137 -152.75,-61.731 -240.2,-61.731 -69.46,0 -134.42,13.203 -194.86,39.551 -60.47,26.34 -113.2,62.041 -158.21,107.071 -45.03,45.01 -80.72,97.74 -107.07,158.21 -26.38,60.44 -39.55,125.4 -39.55,194.86 0,68.16 13.17,132.46 39.55,192.93 26.35,60.44 62.04,112.86 107.07,157.23 45.01,44.38 97.74,79.74 158.21,106.12 60.44,26.34 125.4,39.55 194.86,39.55 87.45,0 167.51,-20.59 240.2,-61.74 72.64,-41.18 131.49,-96.47 176.52,-165.92 l -135.04,-88.75 c -29.61,47.57 -68.82,85.53 -117.69,113.83 -48.9,28.28 -103.55,42.45 -163.99,42.45" /><path
         id="path26"
         style="fill:#3b393d;fill-opacity:1;fill-rule:nonzero;stroke:none"
         d="m 4740.17,1519.5 c 34.73,-7.72 74.58,-17.36 119.62,-28.94 45,-11.58 87.78,-28.64 128.29,-51.13 40.52,-22.52 74.92,-52.42 103.22,-89.71 28.28,-37.32 42.45,-84.88 42.45,-142.77 0,-90.04 -36.36,-160.46 -109.01,-211.259 -72.68,-50.793 -173.33,-76.203 -301.93,-76.203 -46.31,0 -90.05,4.821 -131.2,14.473 -41.18,9.641 -78.46,23.449 -111.9,41.48 -33.46,17.989 -63.03,38.889 -88.75,62.699 -25.74,23.78 -45.03,50.46 -57.87,80.07 l 146.62,52.09 c 18,-24.45 48.87,-45.67 92.61,-63.67 43.71,-18.03 93.87,-27.01 150.49,-27.01 19.29,0 42.44,1.27 69.45,3.86 27.01,2.56 53.05,8.35 78.14,17.36 25.08,8.98 46.6,21.86 64.63,38.59 18,16.7 27.01,39.22 27.01,67.52 0,12.84 -1.93,25.72 -5.79,38.59 -3.86,12.84 -13.84,25.71 -29.9,38.59 -16.1,12.84 -41.18,25.71 -75.24,38.58 -34.1,12.84 -82,25.72 -143.74,38.59 -42.44,8.98 -85.22,18.96 -128.3,29.9 -43.11,10.91 -81.69,26.68 -115.76,47.27 -34.09,20.56 -62.06,46.6 -83.92,78.14 -21.88,31.5 -32.8,71.68 -32.8,120.58 0,82.29 32.14,149.19 96.47,200.65 64.3,51.42 153.04,77.17 266.24,77.17 43.71,0 85.85,-4.53 126.37,-13.51 40.51,-9.01 77.47,-22.18 110.93,-39.55 33.44,-17.36 62.71,-37.95 87.79,-61.74 25.08,-23.81 43.41,-50.49 54.98,-80.06 l -146.63,-52.09 c -15.43,25.71 -42.77,46.6 -81.99,62.7 -39.25,16.07 -83.92,24.12 -134.08,24.12 -65.6,0 -116.73,-10.95 -153.39,-32.8 -36.65,-21.89 -54.98,-50.17 -54.98,-84.89 0,-11.58 1.6,-22.19 4.83,-31.84 3.19,-9.64 11.87,-18.99 26.04,-27.97 14.14,-9.02 36.32,-18.33 66.56,-27.97 30.21,-9.65 71.68,-19.63 124.44,-29.91" /><path
         id="path28"
         style="fill:#3b393d;fill-opacity:1;fill-rule:nonzero;stroke:none"
         d="m 6766.08,1754.88 c -46.3,0 -90.04,-9.02 -131.19,-27.02 -41.19,-18.02 -76.55,-41.81 -106.12,-71.38 -29.6,-29.6 -53.06,-64.96 -70.42,-106.11 -17.36,-41.18 -26.04,-84.89 -26.04,-131.19 0,-46.3 8.68,-90.05 26.04,-131.2 17.36,-41.18 40.82,-77.17 70.42,-108.04 29.57,-30.86 64.93,-55.31 106.12,-73.31 41.15,-18.03 84.89,-27.01 131.19,-27.01 60.44,0 114.79,14.47 163.03,43.41 48.23,28.94 87.12,66.56 116.72,112.86 l 136.97,-88.75 c -45.04,-69.45 -103.87,-124.77 -176.52,-165.921 -72.68,-41.137 -152.76,-61.731 -240.2,-61.731 -69.46,0 -134.42,13.203 -194.86,39.551 -60.47,26.34 -113.19,62.041 -158.21,107.071 -45.04,45.01 -80.72,97.74 -107.07,158.21 -26.37,60.44 -39.55,125.4 -39.55,194.86 0,68.16 13.18,132.46 39.55,192.93 26.35,60.44 62.03,112.86 107.07,157.23 45.02,44.38 97.74,79.74 158.21,106.12 60.44,26.34 125.4,39.55 194.86,39.55 87.44,0 167.52,-20.59 240.2,-61.74 72.65,-41.18 131.48,-96.47 176.52,-165.92 l -135.05,-88.75 c -29.6,47.57 -68.81,85.53 -117.68,113.83 -48.9,28.28 -103.55,42.45 -163.99,42.45" /><path
         id="path30"
         style="fill:#3b393d;fill-opacity:1;fill-rule:nonzero;stroke:none"
         d="m 7487.64,2127.23 c 0,-29.6 -10.31,-54.99 -30.87,-76.21 -20.59,-21.22 -45.67,-31.84 -75.24,-31.84 -29.6,0 -54.99,10.62 -76.21,31.84 -21.23,21.22 -31.83,46.61 -31.83,76.21 0,29.57 10.6,54.65 31.83,75.24 21.22,20.56 46.61,30.87 76.21,30.87 29.57,0 54.65,-10.31 75.24,-30.87 20.56,-20.59 30.87,-45.67 30.87,-75.24" /><path
         id="path32"
         style="fill:#3b393d;fill-opacity:1;fill-rule:nonzero;stroke:none"
         d="m 7298.57,936.852 163.988,0 0,960.793 -163.988,0 0,-960.793 z" /><path
         id="path34"
         style="fill:#3b393d;fill-opacity:1;fill-rule:nonzero;stroke:none"
         d="m 8782.18,936.852 163.992,0 0,1296.49 -163.992,0 0,-1296.49 z" /><path
         id="path36"
         style="fill:#318c7b;fill-opacity:1;fill-rule:nonzero;stroke:none"
         d="m 6191.36,1417.25 c 0,281.64 -233.92,508.66 -518.08,497.35 -255.32,-10.16 -463.86,-216.28 -476.78,-471.47 -9.69,-191.33 88.77,-360.37 239.57,-451.708 0.68,-0.422 1.37,-0.813 2.05,-1.223 5.55,-3.32 11.17,-6.539 16.86,-9.648 1.5,-0.821 2.99,-1.66 4.5,-2.461 1.14,-0.61 2.26,-1.258 3.41,-1.86 l 0,0.122 c 12.5,-6.571 25.26,-12.723 38.37,-18.223 52.45,-21.988 110.35,17.121 110.35,73.991 l 0,0.28 c 0,32.26 -19.47,61.16 -49.19,73.71 -37.01,15.63 -70.65,37.69 -99.53,64.76 l 0,0.02 c -0.66,0.62 -1.27,1.28 -1.93,1.91 -4.45,4.23 -8.79,8.58 -13,13.06 -1.71,1.81 -3.34,3.68 -5.01,5.52 -3.28,3.64 -6.49,7.33 -9.61,11.11 -1.57,1.9 -3.13,3.81 -4.66,5.75 -3.41,4.31 -6.7,8.71 -9.9,13.19 -44.78,62.67 -68.76,141.2 -61.52,225.63 14.07,164.07 148.09,295.64 312.37,306.98 197.31,13.63 361.6,-142.4 361.6,-336.79 0,-72.01 -22.61,-138.68 -61.03,-193.46 -4.16,-5.94 -8.51,-11.73 -13.03,-17.37 -0.84,-1.05 -1.73,-2.06 -2.58,-3.1 -3.69,-4.5 -7.51,-8.89 -11.42,-13.19 -1.34,-1.47 -2.67,-2.94 -4.03,-4.38 -4.62,-4.91 -9.35,-9.7 -14.26,-14.32 -0.19,-0.18 -0.37,-0.38 -0.56,-0.55 l 0,-0.01 c -28.88,-27.07 -62.52,-49.13 -99.54,-64.76 -29.71,-12.55 -49.18,-41.45 -49.18,-73.71 l 0,-0.28 c 0,-56.87 57.9,-95.979 110.35,-73.991 13.11,5.5 25.87,11.652 38.37,18.223 l 0,-0.09 c 0.83,0.429 1.62,0.898 2.44,1.328 2.22,1.18 4.41,2.39 6.6,3.609 4.84,2.66 9.62,5.403 14.35,8.211 1.27,0.762 2.55,1.488 3.81,2.25 6.24,3.789 12.39,7.719 18.45,11.77 0.26,0.17 0.52,0.33 0.78,0.5 l 0,0.03 c 133.02,89.32 220.61,241.01 220.61,413.29" /><path
         id="path38"
         style="fill:#318c7b;fill-opacity:1;fill-rule:nonzero;stroke:none"
         d="m 4065.9,1417.25 c 0,-160.9 -130.43,-291.33 -291.33,-291.33 -160.9,0 -291.33,130.43 -291.33,291.33 0,160.89 130.43,291.32 291.33,291.32 160.9,0 291.33,-130.43 291.33,-291.32" /><g
         transform="scale(10,10)"
         id="g40"><text
           id="text42"
           style="font-variant:normal;font-weight:300;font-size:79.01519775px;font-family:'Open Sans';-inkscape-font-specification:OpenSans-Light;writing-mode:lr-tb;fill:#3b393d;fill-opacity:1;fill-rule:nonzero;stroke:none"
           transform="matrix(1,0,0,-1,0,21.259)"><tspan
             id="tspan44"
             y="0"
             x="0 37.532219 68.269135 111.64848 153.51602 179.98611 197.84355 244.46252 285.78748 306.33142 343.86365 390.16653 459.89218 529.6626 575.96552 622.58447 643.12842 684.39807 715.14807 761.44592 808.05237 854.65881">creating common ground</tspan></text>
</g></g></g></svg>