<?xml version="1.0" encoding="UTF-8" standalone="no"?>
<svg
   xmlns:dc="http://purl.org/dc/elements/1.1/"
   xmlns:cc="http://creativecommons.org/ns#"
   xmlns:rdf="http://www.w3.org/1999/02/22-rdf-syntax-ns#"
   xmlns:svg="http://www.w3.org/2000/svg"
   xmlns="http://www.w3.org/2000/svg"
   viewBox="0 0 397.3125 251.64999"
   height="251.64999"
   width="397.3125"
   xml:space="preserve"
   version="1.1"
   id="svg2"><metadata
     id="metadata8"><rdf:RDF><cc:Work
         rdf:about=""><dc:format>image/svg+xml</dc:format><dc:type
           rdf:resource="http://purl.org/dc/dcmitype/StillImage" /></cc:Work></rdf:RDF></metadata><defs
     id="defs6"><clipPath
       id="clipPath28"
       clipPathUnits="userSpaceOnUse"><path
         id="path30"
         d="m 132.953,1453.62 31.371,111.23 1798.246,-2.65 -31.38,-101.24 -1798.237,-7.34 z" /></clipPath><linearGradient
       id="linearGradient32"
       spreadMethod="pad"
       gradientTransform="matrix(1829.61,0,0,-1829.61,132.954,1509.24)"
       gradientUnits="userSpaceOnUse"
       y2="0"
       x2="1"
       y1="0"
       x1="0"><stop
         id="stop34"
         offset="0"
         style="stop-opacity:1;stop-color:#bf2519" /><stop
         id="stop36"
         offset="0.374233"
         style="stop-opacity:1;stop-color:#bf2519" /><stop
         id="stop38"
         offset="1"
         style="stop-opacity:1;stop-color:#231f20" /></linearGradient><clipPath
       id="clipPath60"
       clipPathUnits="userSpaceOnUse"><path
         id="path62"
         d="m 168.895,1634.32 31.375,111.23 1798.24,-2.66 -31.38,-101.23 -1798.235,-7.34 z" /></clipPath><linearGradient
       id="linearGradient64"
       spreadMethod="pad"
       gradientTransform="matrix(1829.61,0,0,-1829.61,168.896,1689.93)"
       gradientUnits="userSpaceOnUse"
       y2="0"
       x2="1"
       y1="0"
       x1="0"><stop
         id="stop66"
         offset="0"
         style="stop-opacity:1;stop-color:#bf2519" /><stop
         id="stop68"
         offset="0.282209"
         style="stop-opacity:1;stop-color:#bf2519" /><stop
         id="stop70"
         offset="1"
         style="stop-opacity:1;stop-color:#231f20" /></linearGradient></defs><g
     transform="matrix(1.25,0,0,-1.25,0,251.65)"
     id="g10"><g
       transform="scale(0.1,0.1)"
       id="g12"><g
         transform="scale(10,10)"
         id="g14"><text
           id="text16"
           style="font-variant:normal;font-weight:900;font-size:168px;font-family:UniversLTStd;-inkscape-font-specification:UniversLTStd-BlackObl;writing-mode:lr-tb;fill:#bf2519;fill-opacity:1;fill-rule:nonzero;stroke:none"
           transform="matrix(0.642857,0,0,-1,0,45.6961)"><tspan
             id="tspan18"
             y="0"
             x="0">J</tspan></text>
<text
           id="text20"
           style="font-variant:normal;font-weight:900;font-size:158.3999939px;font-family:UniversLTStd;-inkscape-font-specification:UniversLTStd-BlackObl;writing-mode:lr-tb;fill:#bf2519;fill-opacity:1;fill-rule:nonzero;stroke:none"
           transform="matrix(0.757576,0,0,-1,112.852,69.8469)"><tspan
             id="tspan22"
             y="0"
             x="0 35.1991">ll</tspan></text>
</g><g
         id="g24"><g
           clip-path="url(#clipPath28)"
           id="g26"><path
             id="path40"
             style="fill:url(#linearGradient32);fill-opacity:1;fill-rule:nonzero;stroke:none"
             d="m 132.953,1453.62 31.371,111.23 1798.246,-2.65 -31.38,-101.24 -1798.237,-7.34" /></g></g><g
         transform="scale(10,10)"
         id="g42"><text
           id="text44"
           style="font-variant:normal;font-weight:900;font-size:25.20000076px;font-family:UniversLTStd;-inkscape-font-specification:UniversLTStd-BlackObl;writing-mode:lr-tb;fill:#231f20;fill-opacity:1;fill-rule:nonzero;stroke:none"
           transform="matrix(0.576679,0,0,-1,60.2715,45.3141)"><tspan
             id="tspan46"
             y="0"
             x="0 15.901271 37.395905 58.891415 80.38694 100.49639 119.09446 136.40636 145.30193 166.79655">FOUNDATION</tspan></text>
</g><path
         id="path48"
         style="fill:#231f20;fill-opacity:1;fill-rule:nonzero;stroke:none"
         d="m 2037.11,1714.55 61.7,4.91 3.15,25.09 -29.45,33 -14.47,17.19 21.96,12.55 84.69,3.14 187.76,-110.83 38.11,89.04 98.26,205.59 188.22,0 0,-28.73 -71.44,-9.41 0,-141.75 80.25,6.86 0,-37.05 -65.28,-6.86 0,-47.06 188.21,-6.27 131.75,-53.33 c 0,0 24.47,-15.95 75.29,-15.68 81.51,0.43 54.02,4.84 116.06,-6.27 63.65,-11.41 56.46,-37.65 12.55,-53.33 -43.92,-15.69 -90.98,-25.09 -163.13,-31.37 -72.14,-6.27 -181.93,-12.55 -181.93,-12.55 l -84.7,0 c 0,0 -34.5,-28.23 -62.73,-43.91 -28.23,-15.69 -72.15,0 -72.15,0 l -47.05,-56.47 -53.33,0 3.13,-18.82 c 0,0 57.63,-2.86 65.51,-3.52 9.87,-0.83 26.86,-0.17 26.86,-0.17 l 21.48,-0.11 c 4.08,-4.01 5.33,-9.41 8.53,-10.72 10,-4.1 18.9,-1.14 18.9,-1.14 l 0,-31.88 -18.9,-1.98 c -18.1,-14.07 12.23,-9.87 -50.23,-15.17 -62.84,-5.34 -75.28,-10 -75.28,-10 l 0,-47.65 -87.83,0 -87.83,-81.55 0,-50.2 -200.77,0 138.03,279.19 -53.33,3.13 -166.25,-138.02 -103.51,3.14 0,21.96 109.78,109.79 c 0,0 -34.5,25.09 -34.5,43.91 0,18.83 -3.14,59.6 12.55,59.6 15.68,0 65.87,6.28 65.87,6.28 l 12.55,19.07 6.26,28.57 -60.62,13.73 7.3,86.06" /><g
         transform="scale(10,10)"
         id="g50"><text
           id="text52"
           style="font-variant:normal;font-weight:900;font-size:137.5px;font-family:UniversLTStd;-inkscape-font-specification:UniversLTStd-BlackObl;writing-mode:lr-tb;fill:#bf2519;fill-opacity:1;fill-rule:nonzero;stroke:none"
           transform="matrix(0.704,0,0,-1,61.2395,69.5379)"><tspan
             id="tspan54"
             y="0"
             x="0">e</tspan></text>
</g><g
         id="g56"><g
           clip-path="url(#clipPath60)"
           id="g58"><path
             id="path72"
             style="fill:url(#linearGradient64);fill-opacity:1;fill-rule:nonzero;stroke:none"
             d="m 168.895,1634.32 31.375,111.23 1798.24,-2.66 -31.38,-101.23 -1798.235,-7.34" /></g></g></g></g></svg>